<svg width="25" height="24" viewBox="0 0 25 24" fill="" xmlns="http://www.w3.org/2000/svg">
<path d="M13.8954 10.0225H11.2796C10.9199 10.0225 10.6285 10.3139 10.6285 10.6736V13.2897C10.6285 13.6494 10.9199 13.9408 11.2796 13.9408H13.8954C14.2551 13.9408 14.5466 13.6494 14.5466 13.2897V10.6736C14.5466 10.3139 14.2551 10.0225 13.8954 10.0225ZM13.2443 12.6385H11.9308V11.3248H13.2443V12.6385Z" fill=""/>
<path d="M15.037 9.72841C15.2576 9.72841 15.4363 9.54973 15.4363 9.32912C15.4363 9.10851 15.2576 8.92984 15.037 8.92984C14.8164 8.92984 14.6377 9.10877 14.6377 9.32912C14.6377 9.54947 14.8164 9.72841 15.037 9.72841Z" fill=""/>
<path d="M10.0286 9.84223C10.2493 9.84223 10.4279 9.66355 10.4279 9.44294C10.4279 9.22233 10.2493 9.04366 10.0286 9.04366C9.80804 9.04366 9.62936 9.22233 9.62936 9.44294C9.62936 9.66355 9.80804 9.84223 10.0286 9.84223Z" fill=""/>
<path d="M15.0917 14.9079C15.3122 14.9079 15.491 14.7291 15.491 14.5086C15.491 14.2881 15.3122 14.1093 15.0917 14.1093C14.8712 14.1093 14.6924 14.2881 14.6924 14.5086C14.6924 14.7291 14.8712 14.9079 15.0917 14.9079Z" fill=""/>
<path d="M10.0831 15.0217C10.3036 15.0217 10.4824 14.843 10.4824 14.6224C10.4824 14.4019 10.3036 14.2231 10.0831 14.2231C9.86256 14.2231 9.6838 14.4019 9.6838 14.6224C9.6838 14.843 9.86256 15.0217 10.0831 15.0217Z" fill=""/>
<path d="M23.1308 10.5541C22.5622 10.5541 22.0699 10.8825 21.8306 11.3589H17.304V10.5564H18.4186C18.6022 10.5564 18.7772 10.4788 18.9007 10.3431L20.1173 9.00381H20.2931C20.5228 9.50676 21.0291 9.85759 21.6172 9.85759C22.42 9.85759 23.0732 9.20436 23.0732 8.40137C23.0732 7.59837 22.42 6.94514 21.6172 6.94514C21.0679 6.94514 20.589 7.25118 20.341 7.70125H19.8292C19.6456 7.70125 19.4705 7.77887 19.3471 7.91457L18.1305 9.25385H17.304V8.76367C17.304 7.93723 16.6318 7.26498 15.8054 7.26498H15.6621V6.43855L17.0014 5.22194C17.1371 5.09849 17.2147 4.92346 17.2147 4.73983V4.22777C17.6648 3.97981 17.9706 3.50083 17.9706 2.95152C17.9706 2.14879 17.3173 1.49556 16.5146 1.49556C15.7119 1.49556 15.0584 2.14879 15.0584 2.95152C15.0584 3.53964 15.4095 4.04597 15.9122 4.2757V4.45151L14.5729 5.66811C14.4372 5.79157 14.3596 5.9666 14.3596 6.15022V7.26472H13.2383V2.7567C13.7147 2.51708 14.0431 2.02481 14.0431 1.45623C14.0431 0.653231 13.3899 0 12.5871 0C11.7844 0 11.1309 0.653231 11.1309 1.45623C11.1309 2.02507 11.4593 2.51734 11.936 2.75696V7.26551H11.1333V6.16871C11.1333 5.98509 11.0559 5.81006 10.9202 5.6866L9.58066 4.46974V4.29393C10.0836 4.0642 10.4344 3.55787 10.4344 2.97001C10.4344 2.16702 9.78121 1.51379 8.97821 1.51379C8.17522 1.51379 7.52225 2.16702 7.52225 2.97001C7.52225 3.51906 7.82803 3.99805 8.2781 4.246V4.75807C8.2781 4.94169 8.35546 5.11672 8.49115 5.24018L9.8307 6.45704V7.26551H9.36916C8.54273 7.26551 7.87048 7.93775 7.87048 8.76419V9.01709H7.02633L5.80973 7.67781C5.68627 7.54211 5.51124 7.4645 5.32762 7.4645H4.81582C4.56786 7.01416 4.08888 6.70838 3.53983 6.70838C2.73683 6.70838 2.0836 7.36161 2.0836 8.16461C2.0836 8.96761 2.73683 9.62084 3.53983 9.62084C4.12768 9.62084 4.63402 9.26974 4.86374 8.76705H5.03955L6.25616 10.1063C6.37961 10.242 6.55464 10.3196 6.73827 10.3196H7.87074V11.4409H3.34448C3.10486 10.9643 2.61259 10.6358 2.04375 10.6358C1.24076 10.6358 0.587524 11.2891 0.587524 12.0921C0.587524 12.8951 1.24076 13.5483 2.04375 13.5483C2.61259 13.5483 3.10486 13.2199 3.34448 12.7432H7.87074V13.5457H6.75624C6.57261 13.5457 6.39758 13.6231 6.27413 13.7588L5.05726 15.0983H4.88145C4.65173 14.5956 4.1454 14.2448 3.55754 14.2448C2.75454 14.2448 2.10131 14.898 2.10131 15.701C2.10131 16.504 2.75454 17.157 3.55754 17.157C4.10685 17.157 4.58583 16.8509 4.83353 16.4008H5.34533C5.52895 16.4008 5.70398 16.3235 5.82744 16.1878L7.0443 14.8483H7.87074V15.2007C7.87074 16.0268 8.54299 16.6991 9.36942 16.6991H9.59368V17.5612L8.25466 18.7778C8.1187 18.9013 8.04134 19.0763 8.04134 19.2599V19.7717C7.59101 20.0197 7.28523 20.4986 7.28523 21.048C7.28523 21.8507 7.93846 22.5039 8.7412 22.5039C9.54393 22.5039 10.1974 21.8507 10.1974 21.048C10.1974 20.4601 9.84658 19.9535 9.3439 19.7238V19.548L10.6832 18.3314C10.8189 18.2079 10.8962 18.0329 10.8962 17.8493V16.6991H12.0175V21.2436C11.5411 21.4832 11.2127 21.9755 11.2127 22.5438C11.2127 23.3468 11.8659 24 12.6687 24C13.4714 24 14.1249 23.3468 14.1249 22.5438C14.1249 21.9752 13.7964 21.4829 13.3198 21.2433V16.6988H14.1225V17.8315C14.1225 18.0152 14.2002 18.1902 14.3359 18.3137L15.6751 19.5303V19.7061C15.1722 19.9358 14.8214 20.4421 14.8214 21.0302C14.8214 21.833 15.4746 22.4862 16.2776 22.4862C17.0806 22.4862 17.7335 21.833 17.7335 21.0302C17.7335 20.4809 17.4278 20.002 16.9777 19.754V19.2419C16.9777 19.0583 16.9001 18.8833 16.7644 18.7598L15.4251 17.5432V16.6988H15.8056C16.6321 16.6988 17.3043 16.0266 17.3043 15.2004V15.0855H18.1482L19.3648 16.4248C19.4883 16.5605 19.6633 16.6381 19.8469 16.6381H20.3587C20.6067 17.0885 21.0857 17.3942 21.635 17.3942C22.4377 17.3942 23.0909 16.741 23.0909 15.938C23.0909 15.135 22.4377 14.482 21.635 14.482C21.0468 14.482 20.5405 14.8329 20.3108 15.3356H20.135L18.9184 13.9963C18.7949 13.8606 18.6199 13.783 18.4363 13.783H17.304V12.6617H21.8303C22.0699 13.1383 22.5622 13.4668 23.1308 13.4668C23.9338 13.4668 24.587 12.8135 24.587 12.0105C24.587 11.2076 23.9338 10.5541 23.1308 10.5541ZM21.617 8.2477C21.7016 8.2477 21.7707 8.31672 21.7707 8.40163C21.7707 8.48654 21.7016 8.55556 21.617 8.55556C21.5323 8.55556 21.4631 8.48654 21.4631 8.40163C21.4631 8.31672 21.5321 8.2477 21.617 8.2477ZM16.5146 2.79863C16.5992 2.79863 16.6683 2.86765 16.6683 2.9523C16.6683 3.03695 16.5992 3.10623 16.5146 3.10623C16.4299 3.10623 16.3607 3.03721 16.3607 2.9523C16.3607 2.86739 16.4297 2.79863 16.5146 2.79863ZM8.97847 3.12369C8.89382 3.12369 8.8248 3.05466 8.8248 2.97001C8.8248 2.88537 8.89382 2.81608 8.97847 2.81608C9.06312 2.81608 9.1324 2.88511 9.1324 2.97001C9.1324 3.05492 9.06338 3.12369 8.97847 3.12369ZM3.54035 8.31828C3.45544 8.31828 3.38642 8.24926 3.38642 8.16435C3.38642 8.07944 3.45544 8.01042 3.54035 8.01042C3.62526 8.01042 3.69402 8.07944 3.69402 8.16435C3.69402 8.24926 3.625 8.31828 3.54035 8.31828ZM2.04401 12.2455C1.9591 12.2455 1.89008 12.1765 1.89008 12.0916C1.89008 12.0066 1.9591 11.9376 2.04401 11.9376C2.12892 11.9376 2.19794 12.0066 2.19794 12.0916C2.19794 12.1765 2.12892 12.2455 2.04401 12.2455ZM3.5578 15.8539C3.47289 15.8539 3.40387 15.7849 3.40387 15.7002C3.40387 15.6156 3.47289 15.5463 3.5578 15.5463C3.64271 15.5463 3.71147 15.6153 3.71147 15.7002C3.71147 15.7851 3.64245 15.8539 3.5578 15.8539ZM8.7412 21.2003C8.65655 21.2003 8.58752 21.1313 8.58752 21.0467C8.58752 20.962 8.65655 20.8927 8.7412 20.8927C8.82584 20.8927 8.89513 20.9617 8.89513 21.0467C8.89513 21.1316 8.82611 21.2003 8.7412 21.2003ZM16.2773 20.8753C16.362 20.8753 16.431 20.9443 16.431 21.0292C16.431 21.1141 16.362 21.1829 16.2773 21.1829C16.1927 21.1829 16.1234 21.1139 16.1234 21.0292C16.1234 20.9446 16.1924 20.8753 16.2773 20.8753ZM12.5874 1.3023C12.672 1.3023 12.7411 1.37132 12.7411 1.45623C12.7411 1.54114 12.672 1.61016 12.5874 1.61016C12.5027 1.61016 12.4335 1.54114 12.4335 1.45623C12.4335 1.37132 12.5025 1.3023 12.5874 1.3023ZM12.6687 22.6969C12.584 22.6969 12.515 22.6279 12.515 22.543C12.515 22.4581 12.584 22.3893 12.6687 22.3893C12.7533 22.3893 12.8226 22.4583 12.8226 22.543C12.8226 22.6276 12.7536 22.6969 12.6687 22.6969ZM16.0018 15.1999C16.0018 15.308 15.9137 15.396 15.8054 15.396H9.36968C9.26133 15.396 9.1733 15.308 9.1733 15.1999V8.76419C9.1733 8.65584 9.26133 8.5678 9.36968 8.5678H15.8054C15.9137 8.5678 16.0018 8.65584 16.0018 8.76419V15.1999ZM21.6347 15.7838C21.7193 15.7838 21.7884 15.8528 21.7884 15.9375C21.7884 16.0221 21.7193 16.0914 21.6347 16.0914C21.5501 16.0914 21.4808 16.0224 21.4808 15.9375C21.4808 15.8526 21.5498 15.7838 21.6347 15.7838ZM23.1308 12.1642C23.0461 12.1642 22.9771 12.0952 22.9771 12.0103C22.9771 11.9254 23.0461 11.8566 23.1308 11.8566C23.2154 11.8566 23.2847 11.9256 23.2847 12.0103C23.2847 12.0949 23.2157 12.1642 23.1308 12.1642Z" fill=""/>
</svg>
