<svg width="25" height="23" viewBox="0 0 25 23" fill="" xmlns="http://www.w3.org/2000/svg">
<path d="M16.1709 16.8228C16.1203 15.6932 16.8241 14.6961 17.2457 14.2059C18.453 12.7936 20.0504 10.6015 19.9283 7.87652C19.7316 3.48246 16.1331 0.19245 11.739 0.389213C7.85217 0.563264 4.03274 3.2753 4.24953 8.1166C4.38931 11.2381 6.04967 13.2381 7.48431 14.6338C8.29127 15.4247 8.75634 16.3186 8.79371 17.1531C8.83521 18.0799 9.51017 19.4311 11.2023 19.3553L13.9688 19.2314C15.6609 19.1556 16.2124 17.7496 16.1709 16.8228ZM11.5051 5.4817C11.4937 5.22811 11.6919 5.01133 11.9455 4.99998C12.1991 4.98862 12.4159 5.18681 12.4272 5.44041C12.4386 5.694 12.2404 5.91077 11.9868 5.92213C11.7332 5.93349 11.5164 5.73529 11.5051 5.4817ZM13.8862 17.3871L13.4251 17.4077L13.2263 12.9676L16.0367 10.1113C16.2181 9.93224 16.3132 9.68312 16.3017 9.42492L16.2397 8.04169C16.217 7.53451 15.7835 7.13812 15.2763 7.16083C14.7691 7.18354 14.3727 7.61709 14.3954 8.12428L14.4394 9.10637L13.1138 10.4547L12.9829 7.53149C13.7785 7.14012 14.3139 6.30303 14.2715 5.35782C14.2145 4.08525 13.1355 3.09869 11.8629 3.15567C10.5903 3.21266 9.60379 4.29172 9.66077 5.56429C9.7031 6.50949 10.311 7.29077 11.1386 7.61408L11.2695 10.5373L9.82863 9.31284L9.78465 8.33074C9.76194 7.82356 9.32839 7.42717 8.8212 7.44989C8.31402 7.4726 7.91763 7.90615 7.94034 8.41333L8.00228 9.79656C8.01385 10.0548 8.13084 10.2944 8.32772 10.4611L11.382 13.0502L11.5808 17.4903L11.1197 17.511C10.963 17.518 10.6771 17.5308 10.638 17.0706C10.5631 15.3968 9.58124 14.1056 8.77429 13.3148C7.51328 12.0823 6.20388 10.4916 6.09384 8.03402C5.92371 4.23475 8.94451 2.36235 11.8216 2.23352C15.2382 2.08053 17.931 4.54253 18.084 7.95911C18.1757 10.0063 16.9362 11.7296 15.8428 13.0029C14.8065 14.2089 14.268 15.5959 14.326 16.8915C14.3288 17.3673 14.043 17.3801 13.8862 17.3871Z" fill=""/>
<path d="M11.6955 20.2572C11.1883 20.2799 10.7919 20.7135 10.8146 21.2207C10.8373 21.7278 11.2709 22.1242 11.7781 22.1015L13.6224 22.0189C14.1295 21.9962 14.5259 21.5627 14.5032 21.0555C14.4805 20.5483 14.047 20.1519 13.5398 20.1746L11.6955 20.2572Z" fill=""/>
<path d="M0.0813991 8.30325C0.10411 8.81043 0.537661 9.20682 1.04485 9.18411L1.967 9.14281C2.47418 9.1201 2.87057 8.68655 2.84786 8.17937C2.82515 7.67218 2.3916 7.2758 1.88441 7.29851L0.962259 7.3398C0.455075 7.36251 0.0586878 7.79606 0.0813991 8.30325Z" fill=""/>
<path d="M2.84815 12.4159L2.22714 13.0951C1.8836 13.4709 1.90983 14.0564 2.28557 14.4C2.47344 14.5717 2.71272 14.6534 2.94787 14.6429C3.18302 14.6324 3.41404 14.5296 3.58581 14.3418L4.20681 13.6625C4.55035 13.2868 4.52413 12.7012 4.14838 12.3577C3.77264 12.0141 3.19168 12.0402 2.84815 12.4159Z" fill=""/>
<path d="M3.71129 2.59669L3.03206 1.97569C2.65632 1.63215 2.07075 1.65837 1.72722 2.03412C1.38368 2.40986 1.4099 2.99543 1.78565 3.33896L2.46488 3.95997C2.65275 4.13174 2.89203 4.21342 3.12717 4.20289C3.36232 4.19236 3.59334 4.08962 3.76511 3.90175C4.11787 3.52559 4.09165 2.94002 3.71129 2.59669Z" fill=""/>
<path d="M23.0939 6.34876L22.1718 6.39006C21.6646 6.41277 21.2682 6.84632 21.2909 7.3535C21.3136 7.86069 21.7472 8.25707 22.2544 8.23436L23.1765 8.19307C23.6837 8.17036 24.0801 7.73681 24.0574 7.22962C24.0347 6.72244 23.6011 6.32605 23.0939 6.34876Z" fill=""/>
<path d="M21.1067 13.5572C21.2946 13.729 21.5339 13.8106 21.769 13.8001C22.0042 13.7896 22.2352 13.6868 22.4069 13.499C22.7505 13.1232 22.7243 12.5377 22.3485 12.1941L21.6693 11.5731C21.2935 11.2296 20.708 11.2558 20.3644 11.6315C20.0209 12.0073 20.0471 12.5928 20.4229 12.9364L21.1067 13.5572Z" fill=""/>
<path d="M21.916 2.43292C22.2596 2.05718 22.2333 1.47161 21.8576 1.12807C21.4819 0.784539 20.8963 0.81076 20.5528 1.1865L19.932 1.87034C19.5884 2.24609 19.6146 2.83166 19.9904 3.17519C20.1783 3.34696 20.4175 3.42864 20.6527 3.41811C20.8878 3.40758 21.1189 3.30484 21.2906 3.11697L21.916 2.43292Z" fill=""/>
</svg>
