<svg width="32" height="33" viewBox="0 0 32 33" fill="" xmlns="http://www.w3.org/2000/svg">
<path d="M30.9333 10.2436C31.52 10.2436 32 9.76356 32 9.17689C32 8.59022 31.52 8.11022 30.9333 8.11022H28.6987C28.2827 6.01422 26.6293 4.36089 24.5333 3.94489V1.71022C24.5333 1.12355 24.0533 0.643555 23.4667 0.643555C22.88 0.643555 22.4 1.12355 22.4 1.71022V3.84355H20.8V1.71022C20.8 1.12355 20.32 0.643555 19.7333 0.643555C19.1467 0.643555 18.6667 1.12355 18.6667 1.71022V3.84355H17.0667V1.71022C17.0667 1.12355 16.5867 0.643555 16 0.643555C15.4133 0.643555 14.9333 1.12355 14.9333 1.71022V3.84355H13.3333V1.71022C13.3333 1.12355 12.8533 0.643555 12.2667 0.643555C11.68 0.643555 11.2 1.12355 11.2 1.71022V3.84355H9.6V1.71022C9.6 1.12355 9.12 0.643555 8.53333 0.643555C7.94667 0.643555 7.46667 1.12355 7.46667 1.71022V3.94489C5.37067 4.36089 3.71733 6.01422 3.30133 8.11022H1.06667C0.48 8.11022 0 8.59022 0 9.17689C0 9.76356 0.48 10.2436 1.06667 10.2436H3.2V11.8436H1.06667C0.48 11.8436 0 12.3236 0 12.9102C0 13.4969 0.48 13.9769 1.06667 13.9769H3.2V15.5769H1.06667C0.48 15.5769 0 16.0569 0 16.6436C0 17.2302 0.48 17.7102 1.06667 17.7102H3.2V19.3102H1.06667C0.48 19.3102 0 19.7902 0 20.3769C0 20.9636 0.48 21.4436 1.06667 21.4436H3.2V23.0436H1.06667C0.48 23.0436 0 23.5236 0 24.1102C0 24.6969 0.48 25.1769 1.06667 25.1769H3.30133C3.71733 27.2729 5.37067 28.9262 7.46667 29.3422V31.5769C7.46667 32.1636 7.94667 32.6436 8.53333 32.6436C9.12 32.6436 9.6 32.1636 9.6 31.5769V29.4436H11.2V31.5769C11.2 32.1636 11.68 32.6436 12.2667 32.6436C12.8533 32.6436 13.3333 32.1636 13.3333 31.5769V29.4436H14.9333V31.5769C14.9333 32.1636 15.4133 32.6436 16 32.6436C16.5867 32.6436 17.0667 32.1636 17.0667 31.5769V29.4436H18.6667V31.5769C18.6667 32.1636 19.1467 32.6436 19.7333 32.6436C20.32 32.6436 20.8 32.1636 20.8 31.5769V29.4436H22.4V31.5769C22.4 32.1636 22.88 32.6436 23.4667 32.6436C24.0533 32.6436 24.5333 32.1636 24.5333 31.5769V29.3422C26.6293 28.9262 28.2827 27.2729 28.6987 25.1769H30.9333C31.52 25.1769 32 24.6969 32 24.1102C32 23.5236 31.52 23.0436 30.9333 23.0436H28.8V21.4436H30.9333C31.52 21.4436 32 20.9636 32 20.3769C32 19.7902 31.52 19.3102 30.9333 19.3102H28.8V17.7102H30.9333C31.52 17.7102 32 17.2302 32 16.6436C32 16.0569 31.52 15.5769 30.9333 15.5769H28.8V13.9769H30.9333C31.52 13.9769 32 13.4969 32 12.9102C32 12.3236 31.52 11.8436 30.9333 11.8436H28.8V10.2436H30.9333ZM26.6667 24.1476C26.6667 25.8916 25.248 27.3102 23.504 27.3102H8.496C6.752 27.3102 5.33333 25.8916 5.33333 24.1476V9.13955C5.33333 7.39556 6.752 5.97689 8.496 5.97689H23.5093C25.2533 5.97689 26.672 7.39556 26.672 9.13955V24.1476H26.6667Z" fill=""/>
<path d="M15.8133 12.9582C15.7387 12.7342 15.584 12.6276 15.3547 12.6276H13.5627C13.3333 12.6276 13.1787 12.7396 13.104 12.9582L10.432 20.3129C10.4267 20.3342 10.4213 20.3716 10.4213 20.4142C10.4213 20.4729 10.448 20.5316 10.496 20.5796C10.544 20.6276 10.6027 20.6542 10.6613 20.6542H12.1547C12.336 20.6542 12.4693 20.5689 12.544 20.4036L12.9547 19.2889H15.9627L16.3733 20.4036C16.448 20.5742 16.5813 20.6542 16.7627 20.6542H18.256C18.3147 20.6542 18.3733 20.6276 18.4213 20.5796C18.4693 20.5316 18.496 20.4729 18.496 20.4142C18.496 20.3662 18.4907 20.3342 18.4853 20.3129L15.8133 12.9582ZM13.4347 17.5716L14.4533 14.6436L15.472 17.5716H13.4347Z" fill=""/>
<path d="M21.296 12.6276H19.6533C19.5787 12.6276 19.5093 12.6542 19.4507 12.7076C19.392 12.7609 19.3653 12.8302 19.3653 12.9156V20.3716C19.3653 20.4462 19.392 20.5156 19.4507 20.5742C19.5093 20.6329 19.5733 20.6596 19.6533 20.6596H21.296C21.3813 20.6596 21.4507 20.6329 21.504 20.5742C21.5573 20.5156 21.584 20.4516 21.584 20.3716V12.9156C21.584 12.8302 21.5573 12.7609 21.504 12.7076C21.4453 12.6542 21.376 12.6276 21.296 12.6276Z" fill=""/>
</svg>
