<svg width="31" height="30" viewBox="0 0 31 30" fill="" xmlns="http://www.w3.org/2000/svg">
<path d="M9.50827 18.4961C7.94958 18.9138 7.02113 20.5214 7.43878 22.0801C7.85644 23.6388 9.46431 24.5668 11.023 24.1492C12.5817 23.7315 13.5098 22.124 13.0922 20.5653C12.6745 19.0066 11.067 18.0784 9.50827 18.4961ZM10.5886 22.5279C9.92387 22.706 9.23817 22.3104 9.06006 21.6457C8.88195 20.9809 9.27797 20.2955 9.94269 20.1174C10.6074 19.9393 11.2928 20.335 11.4709 20.9997C11.649 21.6644 11.2533 22.3498 10.5886 22.5279Z" fill=""/>
<path d="M17.1695 22.1595L15.0615 22.7244C14.6137 22.8444 14.3481 23.3044 14.4681 23.7522C14.5881 24.2 15.0482 24.4656 15.496 24.3456L17.6039 23.7808C18.0517 23.6608 18.3174 23.2008 18.1974 22.753C18.0774 22.3052 17.6173 22.0396 17.1695 22.1595Z" fill=""/>
<path d="M23.0031 17.2146L22.9077 17.2401C22.3845 16.2679 21.3487 15.6696 20.2452 15.7029L20.229 15.6423C20.133 15.2843 19.7647 15.0716 19.4067 15.1675C19.0487 15.2634 18.836 15.6318 18.9319 15.9898L18.9482 16.0504C17.9759 16.5737 17.3777 17.6094 17.4106 18.7131L17.3153 18.7386C16.9573 18.8345 16.7446 19.2029 16.8406 19.5609C16.9365 19.9189 17.3049 20.1315 17.6628 20.0356L17.7582 20.0101C18.2814 20.9823 19.3175 21.5805 20.421 21.5472L20.456 21.6776C20.5519 22.0355 20.9203 22.2482 21.2782 22.1523C21.6362 22.0564 21.8489 21.688 21.753 21.33L21.7181 21.1997C22.6903 20.6764 23.2886 19.6407 23.2553 18.5371L23.3506 18.5116C23.7086 18.4157 23.9213 18.0473 23.8253 17.6893C23.7294 17.3313 23.361 17.1187 23.0031 17.2146ZM21.529 18.9622C21.4712 19.1657 21.3634 19.3495 21.215 19.4998C21.0563 19.2813 20.7753 19.1704 20.4991 19.2444C20.2228 19.3184 20.0349 19.555 20.0068 19.8236C19.8028 19.7677 19.6174 19.662 19.4656 19.5147C19.702 19.3603 19.8258 19.0689 19.7487 18.7813C19.6717 18.4937 19.4187 18.3032 19.1369 18.2877C19.1927 18.0913 19.2946 17.9125 19.4353 17.7646C19.5844 18.0187 19.8874 18.1547 20.1857 18.0748C20.484 17.9949 20.6784 17.7256 20.6804 17.431C20.8762 17.4884 21.0538 17.5923 21.2 17.7345C20.9637 17.8889 20.8399 18.1803 20.9169 18.4679C20.994 18.7555 21.2469 18.946 21.5288 18.9615L21.529 18.9622Z" fill=""/>
<path d="M25.6963 0.0843653L16.802 2.46759C15.7291 2.75509 15.0903 3.86147 15.3778 4.93443L17.1598 11.5849L14.1727 12.3853L13.6077 10.2766C14.5714 9.66567 15.0735 8.47707 14.763 7.31819C14.3805 5.89081 12.9082 5.04079 11.4808 5.42325C10.0535 5.80571 9.20312 7.27809 9.58558 8.70546C9.8882 9.83484 10.8738 10.6001 11.9787 10.6822L12.5515 12.8197L5.68764 14.6589C3.58841 15.2213 2.33807 17.3851 2.89994 19.4821L3.14139 20.3832L2.12291 20.6561C1.1161 20.9258 0.515935 21.9649 0.785796 22.972L1.33395 25.0177C1.60372 26.0246 2.64267 26.6244 3.64981 26.3545L4.66829 26.0816L4.7689 26.4571C5.33087 28.5544 7.49582 29.8027 9.59472 29.2403L24.945 25.1272C27.0244 24.57 28.2677 22.4384 27.7405 20.3578L28.7642 20.0836C29.771 19.8138 30.3708 18.7748 30.1009 17.7677L29.5528 15.722C29.283 14.7152 28.2444 14.1152 27.2373 14.3851L26.2165 14.6586L25.8604 13.3295C25.5597 12.2076 24.7847 11.3191 23.8035 10.8296L28.2562 9.63651C29.3291 9.34901 29.9679 8.24264 29.6804 7.16968L28.1635 1.50851C27.876 0.435546 26.7693 -0.203133 25.6963 0.0843653ZM4.23387 24.4603L3.21539 24.7333C3.10222 24.7636 2.98555 24.6965 2.95522 24.5833L2.40707 22.5376C2.37675 22.4244 2.44416 22.3077 2.55733 22.2773L3.57581 22.0044L4.23387 24.4603ZM26.652 16.2799L27.6718 16.0067C27.7849 15.9764 27.9013 16.0436 27.9316 16.1567L28.4798 18.2024C28.5101 18.3156 28.443 18.4323 28.3298 18.4626L27.31 18.7359L26.652 16.2799ZM11.2069 8.27104C11.0638 7.73732 11.3819 7.18745 11.9153 7.04453C12.4487 6.9016 12.9988 7.21921 13.1417 7.75261C13.2846 8.28601 12.9671 8.83643 12.4337 8.97936C11.9003 9.12228 11.3498 8.80444 11.2069 8.27104ZM26.1081 20.7393C26.4306 21.9426 25.7139 23.1835 24.5109 23.5058L9.16063 27.6189C7.95537 27.9419 6.71284 27.2256 6.3905 26.0226L6.07607 24.8491C6.07494 24.8449 6.0752 24.8407 6.07398 24.8361L4.98159 20.7593C4.98046 20.7551 4.97803 20.7512 4.9769 20.747L4.52154 19.0476C4.19912 17.8442 4.91713 16.603 6.12238 16.28L17.5994 13.2048C17.609 13.2328 17.6228 13.2583 17.6336 13.2856C17.6502 13.3284 17.6675 13.3707 17.6872 13.412C17.7099 13.4602 17.7352 13.5066 17.7613 13.5524C17.7835 13.5909 17.8053 13.6296 17.8298 13.6664C17.8594 13.711 17.8919 13.753 17.9247 13.795C17.9512 13.8289 17.9773 13.8629 18.0056 13.8946C18.0419 13.9353 18.081 13.9724 18.1207 14.0101C18.1509 14.0385 18.1799 14.0679 18.2117 14.0944C18.2548 14.1305 18.3009 14.1626 18.347 14.1948C18.3796 14.2177 18.4107 14.2417 18.4444 14.2625C18.4952 14.2937 18.5492 14.3203 18.6029 14.3469C18.6358 14.3631 18.6669 14.3819 18.7007 14.3965C18.7623 14.423 18.8265 14.4434 18.8911 14.4639C18.9203 14.4731 18.9479 14.4852 18.9775 14.4933C19.073 14.5188 19.171 14.5384 19.2718 14.55C19.3901 14.5634 19.507 14.5641 19.623 14.5573C19.6604 14.5553 19.6963 14.5492 19.7331 14.5452C19.812 14.5362 19.8896 14.5238 19.9661 14.5057C19.9864 14.501 20.0079 14.5008 20.028 14.4954C20.0627 14.4861 20.0959 14.4737 20.1297 14.4626C20.1476 14.4567 20.1657 14.4515 20.1832 14.4455C20.2659 14.4156 20.3471 14.3814 20.4252 14.341C20.4377 14.3345 20.4496 14.3268 20.462 14.32C20.5284 14.2838 20.5925 14.244 20.6544 14.2003C20.672 14.188 20.6896 14.176 20.707 14.163C20.777 14.1105 20.8446 14.0541 20.9077 13.9924C20.9151 13.9852 20.9216 13.9769 20.929 13.9697C20.9845 13.9134 21.0365 13.8533 21.0856 13.7901C21.1004 13.7712 21.1145 13.7525 21.1287 13.733C21.1817 13.6597 21.2319 13.5837 21.2755 13.5025L22.0338 12.0899C23.0429 12.0816 23.9709 12.7615 24.2395 13.7641L26.1081 20.7393ZM28.0589 7.60451C28.1069 7.7835 28.0005 7.96769 27.8215 8.01565L21.7417 9.64472C21.5187 9.7045 21.3296 9.85384 21.2201 10.0573L20.7696 10.896C20.7682 10.8985 20.766 10.9008 20.7646 10.9033L19.7958 12.7091C19.7031 12.8833 19.5491 12.8923 19.4646 12.883C19.3802 12.8729 19.2305 12.8279 19.1789 12.6352L16.9991 4.50001C16.9511 4.32102 17.0575 4.13683 17.2364 4.08887L26.1308 1.70564C26.3098 1.65768 26.4939 1.76402 26.5419 1.94301L28.0589 7.60451Z" fill=""/>
<path d="M20.2561 7.86825C20.7771 7.72867 21.0862 7.1932 20.9467 6.67225C20.8071 6.1513 20.2716 5.84215 19.7507 5.98174C19.2297 6.12132 18.9206 6.65679 19.0601 7.17774C19.1997 7.69869 19.7352 8.00784 20.2561 7.86825Z" fill=""/>
<path d="M23.0344 7.12383C23.5553 6.98424 23.8645 6.44878 23.7249 5.92783C23.5853 5.40688 23.0498 5.09773 22.5289 5.23732C22.0079 5.3769 21.6988 5.91237 21.8384 6.43332C21.978 6.95427 22.5134 7.26342 23.0344 7.12383Z" fill=""/>
<path d="M25.7438 6.39783C26.2648 6.25824 26.5739 5.72277 26.4344 5.20183C26.2948 4.68088 25.7593 4.37173 25.2384 4.51131C24.7174 4.6509 24.4083 5.18637 24.5478 5.70732C24.6874 6.22826 25.2229 6.53742 25.7438 6.39783Z" fill=""/>
</svg>
