<svg width="25" height="18" viewBox="0 0 25 18" fill="" xmlns="http://www.w3.org/2000/svg">
<path d="M7.75358 10.1972C6.54333 10.1972 5.55865 11.1816 5.55865 12.3918C5.55865 13.6021 6.54333 14.5865 7.75358 14.5865C8.96384 14.5865 9.94827 13.6021 9.94827 12.3918C9.94827 11.1816 8.96384 10.1972 7.75358 10.1972ZM7.75358 13.3277C7.23746 13.3277 6.8175 12.908 6.8175 12.3918C6.8175 11.8757 7.23746 11.456 7.75358 11.456C8.26971 11.456 8.68941 11.8757 8.68941 12.3918C8.68941 12.908 8.26971 13.3277 7.75358 13.3277Z" fill=""/>
<path d="M12.5926 14.3383H10.9559C10.6082 14.3383 10.3264 14.62 10.3264 14.9677C10.3264 15.3154 10.6082 15.5971 10.9559 15.5971H12.5926C12.9403 15.5971 13.222 15.3154 13.222 14.9677C13.222 14.62 12.9403 14.3383 12.5926 14.3383Z" fill=""/>
<path d="M17.7786 11.8883H17.7046C17.5142 11.0824 16.88 10.4479 16.0741 10.2578V10.2108C16.0741 9.9328 15.8485 9.70722 15.5705 9.70722C15.2926 9.70722 15.067 9.9328 15.067 10.2108V10.2578C14.2611 10.4482 13.6266 11.0824 13.4363 11.8883H13.3623C13.0843 11.8883 12.8587 12.1139 12.8587 12.3918C12.8587 12.6698 13.0843 12.8954 13.3623 12.8954H13.4363C13.6266 13.7013 14.2611 14.3358 15.067 14.5258V14.6271C15.067 14.905 15.2926 15.1306 15.5705 15.1306C15.8485 15.1306 16.0741 14.905 16.0741 14.6271V14.5258C16.88 14.3355 17.5145 13.7013 17.7046 12.8954H17.7786C18.0565 12.8954 18.2821 12.6698 18.2821 12.3918C18.2821 12.1139 18.0565 11.8883 17.7786 11.8883ZM16.3714 12.8682C16.2901 13.0044 16.1763 13.1167 16.0396 13.1968C15.9671 13.0077 15.7851 12.8727 15.5705 12.8727C15.356 12.8727 15.174 13.0077 15.1015 13.1968C14.9645 13.1167 14.8507 13.0041 14.7694 12.8679C14.9706 12.802 15.1169 12.6149 15.1169 12.3916C15.1169 12.1683 14.9706 11.9812 14.7694 11.9152C14.848 11.7838 14.9565 11.674 15.0871 11.5942C15.1458 11.8072 15.3389 11.9646 15.5705 11.9646C15.8022 11.9646 15.9953 11.8072 16.0539 11.5942C16.1846 11.6738 16.2931 11.7836 16.3714 11.915C16.1703 11.981 16.024 12.168 16.024 12.3913C16.024 12.6147 16.1703 12.8022 16.3714 12.8682Z" fill=""/>
<path d="M23.0549 0.0012207L16.1489 0.0012207C15.3158 0.0012207 14.6382 0.678735 14.6382 1.51184V6.67565H12.3189V5.03839C13.1357 4.78284 13.7301 4.01922 13.7301 3.1194C13.7301 2.0111 12.8285 1.10951 11.7202 1.10951C10.6119 1.10951 9.71009 2.0111 9.71009 3.1194C9.71009 3.99631 10.2756 4.74206 11.0601 5.01598V6.67565L5.73061 6.67565C4.10065 6.67565 2.77483 8.00047 2.77483 9.62866V10.3283H1.98402C1.20227 10.3283 0.565796 10.9646 0.565796 11.7466L0.565796 13.335C0.565796 14.1167 1.20202 14.7529 1.98402 14.7529H2.77483V15.0445C2.77483 16.6729 4.1009 17.9975 5.73061 17.9975H17.6494C19.264 17.9975 20.5785 16.6946 20.6004 15.085H21.3953C22.177 15.085 22.8132 14.4488 22.8132 13.6668V12.0784C22.8132 11.2966 22.1773 10.6604 21.3953 10.6604H20.6027V9.62841C20.6027 8.75729 20.2137 7.9632 19.5979 7.41812H23.0552C23.8883 7.41812 24.5658 6.74061 24.5658 5.9075V1.51184C24.5658 0.678735 23.888 0.0012207 23.0549 0.0012207ZM2.77483 13.4941H1.98402C1.89615 13.4941 1.82465 13.4228 1.82465 13.335V11.7466C1.82465 11.6587 1.89615 11.5872 1.98402 11.5872H2.77483L2.77483 13.4941ZM20.6034 11.9195H21.3953C21.4831 11.9195 21.5544 11.9908 21.5544 12.0786V13.6671C21.5544 13.7549 21.4831 13.8264 21.3953 13.8264H20.6034V11.9195ZM10.9689 3.1194C10.9689 2.70498 11.3061 2.36837 11.7202 2.36837C12.1344 2.36837 12.4713 2.70523 12.4713 3.1194C12.4713 3.53356 12.1344 3.87068 11.7202 3.87068C11.3061 3.87068 10.9689 3.53356 10.9689 3.1194ZM19.3438 15.0445C19.3438 15.9788 18.5837 16.7387 17.6497 16.7387H5.73086C4.79503 16.7387 4.03393 15.9786 4.03393 15.0445V14.1333C4.03393 14.1301 4.03494 14.127 4.03494 14.1235L4.03494 10.958C4.03494 10.9547 4.03393 10.9515 4.03393 10.9482V9.62866C4.03393 8.69434 4.79503 7.9345 5.73086 7.9345L14.6423 7.9345C14.6438 7.95666 14.6488 7.97781 14.6513 7.99971C14.6551 8.03395 14.6594 8.06794 14.6657 8.10168C14.6727 8.14095 14.682 8.17947 14.6921 8.21774C14.7007 8.24997 14.709 8.2822 14.7196 8.31367C14.7324 8.35169 14.7478 8.38844 14.7634 8.4252C14.776 8.45491 14.7883 8.48462 14.8026 8.51307C14.821 8.54958 14.8422 8.58407 14.8636 8.61907C14.8799 8.6455 14.8953 8.67244 14.9132 8.69787C14.9373 8.73236 14.9645 8.76459 14.9917 8.79682C15.0109 8.81973 15.0287 8.84314 15.0491 8.86479C15.0798 8.89727 15.1138 8.92698 15.1476 8.95669C15.1682 8.97482 15.1871 8.99445 15.2088 9.01157C15.2483 9.04279 15.2908 9.06999 15.3336 9.09743C15.353 9.10977 15.3706 9.12387 15.3905 9.13545C15.4547 9.17246 15.522 9.20569 15.5927 9.23364C15.6758 9.26637 15.7604 9.28953 15.8457 9.30715C15.8732 9.31295 15.9004 9.31546 15.9278 9.31974C15.9867 9.32856 16.0454 9.3346 16.1043 9.33636C16.1199 9.33686 16.1355 9.34089 16.1511 9.34089C16.1781 9.34089 16.2045 9.33837 16.2312 9.33686C16.2453 9.33611 16.2594 9.33586 16.2732 9.33485C16.339 9.32931 16.4044 9.32025 16.4689 9.30615C16.4792 9.30388 16.4893 9.30061 16.4996 9.29809C16.5547 9.28475 16.6088 9.26838 16.6622 9.24874C16.6773 9.2432 16.6924 9.23792 16.7075 9.23187C16.7685 9.20745 16.8284 9.17976 16.886 9.14728C16.8928 9.1435 16.8991 9.13872 16.9059 9.13494C16.957 9.10498 17.0064 9.0715 17.0542 9.03524C17.0686 9.02442 17.0824 9.01359 17.0965 9.00226C17.1491 8.95946 17.2003 8.91414 17.2476 8.86379L18.0711 7.98763C18.8038 8.17746 19.3441 8.85019 19.3441 9.62866L19.3438 15.0445ZM23.3067 5.90775C23.3067 6.04673 23.1939 6.15952 23.0549 6.15952H18.3342C18.161 6.15952 17.9951 6.23102 17.8763 6.35716L17.3871 6.87732C17.3856 6.87883 17.3835 6.88009 17.382 6.8816L16.3296 8.00173C16.2287 8.10999 16.1154 8.08657 16.056 8.06341C15.9968 8.03974 15.8971 7.97806 15.8971 7.82851V1.51184C15.8971 1.37287 16.0099 1.26007 16.1489 1.26007L23.0549 1.26007C23.1939 1.26007 23.3067 1.37287 23.3067 1.51184V5.90775Z" fill=""/>
<path d="M17.6028 4.5842C18.0073 4.5842 18.3352 4.25629 18.3352 3.8518C18.3352 3.4473 18.0073 3.1194 17.6028 3.1194C17.1983 3.1194 16.8704 3.4473 16.8704 3.8518C16.8704 4.25629 17.1983 4.5842 17.6028 4.5842Z" fill=""/>
<path d="M19.76 4.5842C20.1645 4.5842 20.4924 4.25629 20.4924 3.8518C20.4924 3.4473 20.1645 3.1194 19.76 3.1194C19.3555 3.1194 19.0276 3.4473 19.0276 3.8518C19.0276 4.25629 19.3555 4.5842 19.76 4.5842Z" fill=""/>
<path d="M21.8638 4.5842C22.2683 4.5842 22.5962 4.25629 22.5962 3.8518C22.5962 3.4473 22.2683 3.1194 21.8638 3.1194C21.4593 3.1194 21.1314 3.4473 21.1314 3.8518C21.1314 4.25629 21.4593 4.5842 21.8638 4.5842Z" fill=""/>
</svg>
