<svg width="22" height="24" viewBox="0 0 22 24" fill="" xmlns="http://www.w3.org/2000/svg">
<path d="M11.8723 9.16499L10.127 9.16499C9.64706 9.16499 9.25437 9.55768 9.25437 10.0376C9.25437 10.5176 9.64706 10.9103 10.127 10.9103L11.8723 10.9103C12.3523 10.9103 12.745 10.5176 12.745 10.0376C12.745 9.55768 12.3523 9.16499 11.8723 9.16499Z" fill=""/>
<path d="M7.50908 6.54704C7.02912 6.54704 6.63643 6.93973 6.63643 7.41969L6.63643 8.29234C6.63643 8.77229 7.02912 9.16499 7.50908 9.16499C7.98903 9.16499 8.38172 8.77229 8.38172 8.29234L8.38172 7.41969C8.38172 6.93973 7.98903 6.54704 7.50908 6.54704Z" fill=""/>
<path d="M14.4903 6.54704C14.0103 6.54704 13.6176 6.93973 13.6176 7.41969L13.6176 8.29234C13.6176 8.77229 14.0103 9.16499 14.4903 9.16499C14.9702 9.16499 15.3629 8.77229 15.3629 8.29234L15.3629 7.41969C15.3629 6.93973 14.9702 6.54704 14.4903 6.54704Z" fill=""/>
<path d="M3.18511 14.4009C1.71906 14.4009 0.527893 15.592 0.527893 17.0581L0.527893 21.3428C0.527893 22.8088 1.71906 24 3.18511 24L18.8142 24C20.2803 24 21.4714 22.8088 21.4714 21.3428L21.4714 17.0581C21.4714 15.592 20.2803 14.4009 18.8142 14.4009L13.6176 14.4009L13.6176 13.5282L15.76 13.5282C17.0733 13.5282 18.1641 12.5683 18.3779 11.3117C19.6345 11.1197 20.5988 10.0376 20.5988 8.72866C20.5988 7.43278 19.652 6.35942 18.4172 6.14999C18.4172 4.68394 17.226 3.49277 15.76 3.49277L14.4597 3.49277C14.4117 3.1219 14.307 2.76848 14.1543 2.4456L15.1055 1.49441C15.4458 1.15408 15.4458 0.599946 15.1055 0.259613C14.7651 -0.0807198 14.211 -0.0807198 13.8707 0.259613L13.0286 1.10172C12.4614 0.682847 11.7589 0.438506 10.9997 0.438506C10.2405 0.438506 9.53798 0.682847 8.9664 1.09735L8.12429 0.25525C7.78396 -0.0850831 7.22983 -0.0850831 6.8895 0.25525C6.54916 0.595582 6.54916 1.14971 6.8895 1.49005L7.84068 2.44123C7.68797 2.76848 7.58325 3.11753 7.53526 3.48841L6.23501 3.48841C4.77333 3.49277 3.58216 4.68394 3.58216 6.14999C2.34736 6.35942 1.40054 7.43278 1.40054 8.72866C1.40054 10.0376 2.36482 11.1197 3.62143 11.3117C3.83523 12.5683 4.92604 13.5282 6.23937 13.5282L8.38172 13.5282L8.38172 14.4009L3.18511 14.4009ZM19.7261 17.0581L19.7261 21.3428C19.7261 21.8446 19.316 22.2547 18.8142 22.2547L3.18511 22.2547C2.68333 22.2547 2.27319 21.8446 2.27319 21.3428L2.27319 17.0581C2.27319 16.5563 2.68333 16.1462 3.18511 16.1462L18.8142 16.1462C19.316 16.1462 19.7261 16.5563 19.7261 17.0581ZM18.8535 8.72866C18.8535 9.05154 18.6746 9.32642 18.4172 9.47914L18.4172 7.97818C18.6746 8.1309 18.8535 8.40578 18.8535 8.72866ZM10.9997 2.1838C11.8112 2.1838 12.4875 2.7423 12.6839 3.49277L9.31546 3.49277C9.5118 2.7423 10.1881 2.1838 10.9997 2.1838ZM3.14584 8.72866C3.14584 8.40578 3.32473 8.1309 3.58216 7.97818L3.58216 9.47914C3.32473 9.32642 3.14584 9.05154 3.14584 8.72866ZM5.32746 10.871L5.32746 6.14999C5.32746 5.64821 5.7376 5.23807 6.23937 5.23807L15.76 5.23807C16.2617 5.23807 16.6719 5.64821 16.6719 6.14999L16.6719 10.871C16.6719 11.3728 16.2617 11.7829 15.76 11.7829L6.23937 11.7829C5.7376 11.7829 5.32746 11.3728 5.32746 10.871ZM10.127 13.5282L11.8723 13.5282L11.8723 14.4009L10.127 14.4009L10.127 13.5282Z" fill=""/>
<path d="M10.9211 17.7737C10.8906 17.682 10.8251 17.6384 10.7335 17.6384L9.99612 17.6384C9.90013 17.6384 9.83905 17.682 9.8085 17.7737L8.70897 20.8017C8.7046 20.8105 8.7046 20.8236 8.7046 20.8454C8.7046 20.8716 8.71333 20.8934 8.73515 20.9152C8.75696 20.937 8.77878 20.9457 8.80496 20.9457L9.42018 20.9457C9.49435 20.9457 9.55107 20.9108 9.58162 20.841L9.75178 20.3829L10.9909 20.3829L11.1611 20.841C11.1917 20.9108 11.2484 20.9457 11.3225 20.9457L11.9378 20.9457C11.9639 20.9457 11.9858 20.937 12.0076 20.9152C12.0294 20.8934 12.0381 20.8716 12.0381 20.8454C12.0381 20.8279 12.0381 20.8105 12.0338 20.8017L10.9211 17.7737ZM9.94376 19.676L10.3626 18.4718L10.7815 19.676L9.94376 19.676Z" fill=""/>
<path d="M12.4221 17.6689C12.4003 17.6908 12.3872 17.7213 12.3872 17.7562L12.3872 20.8279C12.3872 20.8585 12.4003 20.889 12.4221 20.9108C12.4439 20.9326 12.4744 20.9457 12.505 20.9457L13.1813 20.9457C13.2162 20.9457 13.2424 20.9326 13.2686 20.9108C13.2904 20.889 13.3035 20.8585 13.3035 20.8279L13.3035 17.7562C13.3035 17.7213 13.2904 17.6951 13.2686 17.6689C13.2467 17.6471 13.2162 17.634 13.1813 17.634L12.505 17.634C12.4744 17.6384 12.4483 17.6471 12.4221 17.6689Z" fill=""/>
</svg>
