<svg width="23" height="24" viewBox="0 0 23 24" fill="" xmlns="http://www.w3.org/2000/svg">
<path d="M21.3529 11.8502C22.1748 11.1343 22.6976 10.0835 22.6976 8.91062V8.6157C22.6976 6.63112 21.2067 4.99145 19.2872 4.74911C19.2907 4.71416 19.2978 4.68019 19.3003 4.64492C19.3862 3.45661 18.9721 2.27342 18.1639 1.39797C16.807 -0.0711581 14.6378 -0.420889 12.8885 0.547523L11.5694 1.27776L10.2422 0.543035C8.49231 -0.425056 6.3234 -0.0753253 4.96743 1.3938C4.1593 2.26893 3.74545 3.45244 3.83137 4.64076C3.83393 4.6757 3.84098 4.71 3.84451 4.74494C1.92435 4.98728 0.433427 6.62695 0.433427 8.61122L0.433427 8.90645C0.433427 10.0794 0.95626 11.1305 1.77818 11.846C0.635379 12.8628 0.112866 14.4499 0.491127 15.9819L0.591142 16.3854C0.862336 17.4834 1.54737 18.4063 2.51995 18.9836C2.90783 19.2141 3.32264 19.3759 3.74994 19.4715C3.72237 21.1034 4.60295 22.6659 6.09067 23.4689C6.74814 23.8234 7.47133 23.9968 8.19131 23.9968C9.24402 23.9968 10.29 23.6259 11.1132 22.9085L11.5633 22.5162L12.0185 22.9127C12.8394 23.6285 13.8822 23.9994 14.9359 23.9994C15.661 23.9994 16.3912 23.8237 17.0574 23.4644C18.531 22.6691 19.4093 21.1076 19.3817 19.476C19.809 19.3804 20.2235 19.2186 20.6114 18.9881C21.584 18.4107 22.269 17.4878 22.5405 16.3893L22.6402 15.986C23.0188 14.4537 22.4957 12.867 21.3529 11.8502ZM6.83534 22.0491C5.89545 21.542 5.33479 20.547 5.35082 19.5064C5.47552 19.4853 5.60054 19.466 5.72459 19.4333C6.15254 19.3208 6.40835 18.8826 6.29615 18.4547C6.18364 18.0267 5.74607 17.7712 5.31748 17.8831C4.64206 18.0607 3.93939 17.962 3.33866 17.6052C2.73793 17.2487 2.31512 16.6788 2.14746 16.0008L2.04777 15.5972C1.77946 14.5108 2.24267 13.3776 3.18031 12.7868L3.64993 12.7429C3.87272 12.7827 4.10064 12.807 4.33464 12.807H5.24984C5.56239 13.3904 6.17723 13.7883 6.88406 13.7883C7.90569 13.7883 8.7369 12.9571 8.7369 11.9354C8.7369 10.9138 7.90569 10.0826 6.88406 10.0826C6.12209 10.0826 5.46654 10.5452 5.18221 11.2042H4.33497C3.06779 11.2042 2.03719 10.1736 2.03719 8.90645V8.61122C2.03719 7.35398 3.05272 6.33043 4.30611 6.31504C4.57827 6.84108 4.95653 7.31198 5.42359 7.69057L6.78212 8.79137C7.12576 9.06994 7.63065 9.01736 7.90921 8.67308C8.18778 8.32912 8.13489 7.82456 7.79093 7.54599L6.43239 6.44519C5.84128 5.96595 5.48546 5.28412 5.43064 4.52503C5.37582 3.76595 5.63003 3.0402 6.14581 2.48114C6.99946 1.55601 8.36505 1.33546 9.46681 1.94549L10.7648 2.66418V3.83711H9.80372C9.55048 3.11489 8.86384 2.59462 8.05635 2.59462C7.03472 2.59462 6.20351 3.42583 6.20351 4.44746C6.20351 5.46908 7.03472 6.3003 8.05635 6.3003C8.71286 6.3003 9.28922 5.95634 9.61844 5.43991H10.7648V15.5953H9.60369C9.30397 14.9743 8.6699 14.5438 7.9355 14.5438C6.91387 14.5438 6.08266 15.375 6.08266 16.3967C6.08266 17.4183 6.91387 18.2495 7.9355 18.2495C8.6699 18.2495 9.30397 17.819 9.60369 17.1981H10.7648V21.0868L10.0602 21.701C9.17478 22.4726 7.88549 22.6155 6.83534 22.0491ZM6.63338 11.9354C6.63338 11.7976 6.74558 11.6854 6.88342 11.6854C7.02126 11.6854 7.13346 11.7976 7.13346 11.9354C7.13346 12.0733 7.02126 12.1855 6.88342 12.1855C6.74558 12.1855 6.63338 12.0733 6.63338 11.9354ZM8.30575 4.44682C8.30575 4.58466 8.19355 4.69685 8.05571 4.69685C7.91787 4.69685 7.80567 4.58466 7.80567 4.44682C7.80567 4.30898 7.91787 4.19678 8.05571 4.19678C8.19355 4.19678 8.30575 4.30898 8.30575 4.44682ZM8.18521 16.396C8.18521 16.5339 8.07302 16.6461 7.93518 16.6461C7.79734 16.6461 7.68514 16.5339 7.68514 16.396C7.68514 16.2582 7.79734 16.146 7.93518 16.146C8.07302 16.146 8.18521 16.2582 8.18521 16.396ZM21.0839 15.6017L20.9842 16.0046C20.8166 16.6829 20.3934 17.2529 19.7927 17.6093C19.1916 17.9658 18.489 18.0642 17.8136 17.8873C17.3869 17.7751 16.9477 18.0306 16.8349 18.4588C16.7224 18.8868 16.9782 19.3253 17.4065 19.4375C17.5305 19.4702 17.6552 19.4894 17.7799 19.5106C17.7956 20.5514 17.2327 21.5474 16.279 22.0622C15.2459 22.6203 13.9563 22.4764 13.0712 21.7045L12.3666 21.0903V20.4197H12.884C13.1837 21.0406 13.8178 21.4711 14.5522 21.4711C15.5738 21.4711 16.405 20.6399 16.405 19.6183C16.405 18.5967 15.5738 17.7655 14.5522 17.7655C13.8178 17.7655 13.1837 18.196 12.884 18.8169H12.3666L12.3666 2.66835L13.6645 1.94965C14.7657 1.34027 16.1313 1.55985 16.9856 2.48531C17.5017 3.04469 17.7555 3.77044 17.7007 4.52952C17.6459 5.28861 17.2901 5.97044 16.6987 6.44936L16.0053 7.0113C15.7315 6.85134 15.4142 6.75806 15.0747 6.75806C14.0531 6.75806 13.2219 7.58927 13.2219 8.6109C13.2219 9.63252 14.0531 10.4637 15.0747 10.4637C16.0963 10.4637 16.9275 9.63252 16.9275 8.6109C16.9275 8.52018 16.9189 8.4317 16.9061 8.34419L17.7075 7.69441C18.1745 7.31583 18.5528 6.84493 18.8249 6.31889C20.0783 6.3346 21.0939 7.35815 21.0939 8.61538V8.9103C21.0939 10.1775 20.0629 11.2081 18.7961 11.2081H17.3696C16.9269 11.2081 16.5682 11.5668 16.5682 12.0095C16.5682 12.4522 16.9269 12.8109 17.3696 12.8109H18.7961C19.0301 12.8109 19.2583 12.7865 19.4811 12.7468L19.9504 12.7907C20.8877 13.3812 21.3513 14.5143 21.083 15.6014L21.0839 15.6017ZM14.3025 19.6183C14.3025 19.4805 14.4147 19.3683 14.5525 19.3683C14.6903 19.3683 14.8025 19.4805 14.8025 19.6183C14.8025 19.7561 14.6903 19.8683 14.5525 19.8683C14.4147 19.8683 14.3025 19.7561 14.3025 19.6183ZM15.3257 8.61057C15.3257 8.74842 15.2135 8.86061 15.0757 8.86061C14.9378 8.86061 14.8256 8.74842 14.8256 8.61057C14.8256 8.47273 14.9378 8.36054 15.0757 8.36054C15.2135 8.36054 15.3257 8.47273 15.3257 8.61057Z" fill=""/>
</svg>
