<svg width="24" height="25" viewBox="0 0 24 25" fill="" xmlns="http://www.w3.org/2000/svg">
<path d="M23.9997 10.7643C23.9997 9.61889 23.1189 8.68703 22.0362 8.68703C21.9603 8.68703 21.885 8.6927 21.8099 8.70206L19.507 5.1567C19.7354 4.81554 19.8635 4.40491 19.8635 3.97614C19.8635 2.84549 18.9952 1.92582 17.9275 1.92582C17.263 1.92582 16.6569 2.29505 16.3044 2.86647L11.416 1.7086C11.1718 0.737606 10.336 0.0192871 9.34255 0.0192871C8.15824 0.0192871 7.19482 1.03877 7.19482 2.29165C7.19482 2.51851 7.22779 2.74141 7.28918 2.95381L3.29396 6.77908C2.95727 6.55335 2.56241 6.43055 2.14772 6.43055C0.963414 6.43055 -0.000274658 7.45004 -0.000274658 8.70291C-0.000274658 9.95579 0.963146 10.975 2.14772 10.975C2.39058 10.975 2.62568 10.9313 2.84683 10.8505L5.61807 14.4237C5.44597 14.7345 5.35108 15.0901 5.35108 15.4596C5.35108 16.5902 6.2196 17.5099 7.28703 17.5099C8.12018 17.5099 8.83001 16.9501 9.10343 16.1685H13.5785C13.7492 16.6569 14.0897 17.0593 14.5272 17.2915L13.8114 20.7654C13.1054 20.9203 12.573 21.583 12.573 22.3751C12.573 23.2817 13.2702 24.0193 14.1272 24.0193C14.9842 24.0193 15.6814 23.2817 15.6814 22.3751C15.6814 21.864 15.46 21.4072 15.1131 21.1052L15.8669 17.4452C16.487 17.2791 16.9877 16.7964 17.2073 16.1685H20.7398C21.0438 16.1685 21.3094 15.9522 21.3874 15.6416L22.0911 12.8396C23.1481 12.8081 23.9992 11.8907 23.9992 10.7649L23.9997 10.7643ZM20.5366 9.42407C20.5162 9.44931 20.4948 9.47369 20.4758 9.50007C20.4565 9.52672 20.4396 9.55537 20.4216 9.58288L18.3648 9.56756C18.2272 9.19465 17.9836 8.87533 17.6691 8.65357L18.2042 6.00234C18.2262 5.99894 18.2473 5.99298 18.2691 5.98873C18.3141 5.98022 18.3597 5.97313 18.4036 5.96122L20.6009 9.3441C20.5782 9.36962 20.5581 9.39741 20.5366 9.42407ZM14.8054 13.5082C14.795 13.5119 14.785 13.5165 14.7743 13.5202C14.6995 13.5471 14.6269 13.5791 14.5564 13.6149C14.5398 13.6234 14.5231 13.6313 14.5068 13.6401C14.4315 13.6815 14.3588 13.7275 14.2894 13.7785C14.2763 13.7881 14.2637 13.7989 14.2508 13.8091C14.1899 13.8565 14.1318 13.9072 14.0765 13.9617C14.0656 13.9725 14.054 13.9827 14.0433 13.9937C13.983 14.0558 13.9272 14.1225 13.875 14.1925C13.8632 14.2084 13.8522 14.2246 13.8409 14.2407C13.7943 14.3074 13.7506 14.3763 13.7117 14.4486C13.7072 14.4574 13.7015 14.4653 13.697 14.4741C13.656 14.553 13.6211 14.6358 13.59 14.7203C13.5863 14.7302 13.5809 14.7393 13.5774 14.7495H9.10585C9.07689 14.667 9.04231 14.5873 9.00398 14.5096C8.99513 14.4914 8.98441 14.4747 8.97476 14.4568C8.9383 14.3882 8.89836 14.3218 8.85494 14.2583C8.83885 14.2348 8.8225 14.2115 8.80535 14.1888C8.7579 14.125 8.70697 14.0646 8.65282 14.0074C8.64129 13.9952 8.63084 13.9815 8.61877 13.9696C8.5598 13.9107 8.49788 13.8551 8.4322 13.8043L9.50124 9.99549C10.0213 9.947 10.488 9.66738 10.7944 9.24286L14.8456 10.4583C14.9019 11.0379 15.2013 11.5538 15.6436 11.8697L15.3255 13.4138C15.2563 13.4164 15.1882 13.4229 15.1212 13.4328C15.1008 13.4359 15.0804 13.4391 15.0603 13.4427C14.9735 13.4589 14.8882 13.4796 14.8057 13.5074L14.8054 13.5082ZM10.3103 4.31615C10.3928 4.27163 10.473 4.22342 10.5488 4.16841C10.5577 4.16188 10.566 4.15451 10.5748 4.14799C10.6429 4.09723 10.7078 4.04164 10.7697 3.98294C10.7866 3.96678 10.8035 3.95118 10.8201 3.93445C10.8858 3.86809 10.9485 3.79861 11.0059 3.72403C11.0155 3.71155 11.0238 3.69794 11.0335 3.68518C11.0823 3.6191 11.127 3.55019 11.1689 3.47873C11.1812 3.45746 11.1938 3.43676 11.2056 3.41492C11.2506 3.33183 11.2914 3.24619 11.3262 3.15714C11.3284 3.15176 11.3313 3.14722 11.3335 3.14183L16.0069 4.24894C16.0088 4.26341 16.0133 4.27702 16.0157 4.29148C16.0224 4.33714 16.0337 4.38109 16.0433 4.4259C16.0573 4.48999 16.0717 4.55351 16.0913 4.61562C16.1053 4.65986 16.1219 4.70268 16.1388 4.7455C16.1618 4.80477 16.1862 4.8629 16.2144 4.91934C16.2347 4.96074 16.2567 5.00072 16.2798 5.04043C16.3111 5.09459 16.3449 5.14677 16.3811 5.19781C16.4074 5.23496 16.4336 5.27098 16.462 5.30614C16.5017 5.3552 16.5443 5.40058 16.588 5.44567C16.6189 5.47714 16.6486 5.50862 16.6813 5.53812C16.7296 5.5815 16.781 5.62007 16.8333 5.65836C16.854 5.67339 16.8722 5.69153 16.8936 5.706L16.3586 8.35779C15.8988 8.44145 15.4858 8.70773 15.2062 9.09369L11.164 7.88109C11.0957 7.14717 10.6378 6.53378 10.0132 6.27231V4.44859C10.0945 4.42023 10.173 4.38591 10.2497 4.34791C10.2703 4.3377 10.2904 4.3275 10.3108 4.31672L10.3103 4.31615ZM9.2002 8.56991C9.01229 8.51149 8.87343 8.33255 8.85279 8.10824C8.85145 8.09576 8.85065 8.08385 8.85065 8.07137C8.85065 7.78552 9.07153 7.55326 9.34281 7.55326C9.61409 7.55326 9.83257 7.78552 9.83257 8.07137C9.83257 8.11533 9.8264 8.16013 9.81085 8.21572C9.73981 8.48739 9.4629 8.65329 9.2002 8.56991ZM16.6596 10.7836C16.6258 10.7836 16.5937 10.7799 16.5548 10.7705C16.3315 10.7195 16.1696 10.5071 16.1696 10.2655C16.1696 10.2175 16.1744 10.1798 16.1841 10.1472C16.1862 10.1407 16.1878 10.1339 16.1897 10.1271C16.1897 10.1265 16.1902 10.1259 16.1905 10.1251V10.124C16.191 10.1223 16.1916 10.1208 16.1918 10.1191C16.2489 9.89879 16.4411 9.7448 16.6593 9.7448C16.6934 9.7448 16.7277 9.74877 16.7636 9.75671C16.9885 9.80662 17.1515 10.0204 17.1515 10.2655V10.2677C17.1496 10.5573 16.9338 10.7836 16.6596 10.7836ZM17.9278 3.34374C18.2562 3.34374 18.5235 3.62761 18.5235 3.97614C18.5235 4.18287 18.4264 4.37684 18.265 4.49424C18.1273 4.59378 17.956 4.62838 17.8032 4.59265H17.8026C17.5287 4.53083 17.3298 4.27163 17.3298 3.97614C17.3298 3.93388 17.3354 3.88596 17.3453 3.83236C17.4083 3.54877 17.652 3.34346 17.9281 3.34346L17.9278 3.34374ZM9.34281 1.43692C9.78807 1.43692 10.1502 1.82033 10.1502 2.29136V2.29193C10.1489 2.7624 9.78673 3.14552 9.34281 3.14552C9.0659 3.14552 8.81285 2.9989 8.66193 2.74765C8.5791 2.61295 8.53541 2.45527 8.53541 2.29165C8.53541 1.82061 8.89756 1.43692 9.34281 1.43692ZM8.06737 4.12105C8.07005 4.12332 8.07326 4.12473 8.07594 4.12672C8.15824 4.19052 8.24509 4.24724 8.33516 4.29772C8.36009 4.31161 8.38609 4.32267 8.41156 4.33572C8.47938 4.37032 8.54854 4.40151 8.61958 4.42845C8.63754 4.43526 8.65416 4.44433 8.67239 4.45057V6.27146C8.14457 6.49153 7.73684 6.96256 7.58056 7.54532L4.16034 7.90859C4.15605 7.89668 4.1531 7.88449 4.14855 7.87258L8.06683 4.12105H8.06737ZM1.34031 8.70206C1.34031 8.23103 1.70273 7.84762 2.14799 7.84762C2.39595 7.84762 2.62407 7.96333 2.78115 8.17545C2.89294 8.32064 2.95298 8.4976 2.95539 8.70178C2.95539 8.97515 2.83584 9.22443 2.61871 9.39231C2.48467 9.4995 2.32196 9.55593 2.14799 9.55593C1.70273 9.55593 1.34031 9.17281 1.34031 8.70178V8.70206ZM3.92337 9.97507C3.97806 9.89 4.02711 9.80152 4.07027 9.70935C4.07992 9.68865 4.08743 9.6671 4.09654 9.64611C4.12844 9.57295 4.15686 9.49837 4.18125 9.4218C4.19117 9.39089 4.19975 9.35969 4.20832 9.32822L7.71594 8.95559C7.83656 9.20627 8.00625 9.42407 8.21507 9.5962L7.14201 13.4201C7.11842 13.422 7.09537 13.4271 7.07178 13.43C6.92944 13.4467 6.78843 13.4736 6.65414 13.5227L3.91479 9.99067C3.91801 9.98585 3.92016 9.98018 3.92337 9.97507ZM7.2873 16.0914C6.95892 16.0914 6.69166 15.8075 6.69166 15.459C6.69166 15.2693 6.77182 15.0901 6.90906 14.9698C6.93935 14.9435 6.97233 14.9225 7.00557 14.9029C7.02674 14.891 7.04872 14.8805 7.07124 14.8714C7.08036 14.8675 7.09001 14.8643 7.09939 14.8609C7.15917 14.8402 7.22216 14.8289 7.28784 14.8289C7.30178 14.8289 7.31545 14.8309 7.32912 14.832C7.3696 14.836 7.41007 14.8414 7.4527 14.8547C7.70763 14.929 7.88589 15.1777 7.88589 15.4593C7.88589 15.8078 7.61756 16.0917 7.28784 16.0917L7.2873 16.0914ZM14.1277 22.6005C14.0098 22.6005 13.9138 22.499 13.9138 22.3742C13.9138 22.2494 14.0098 22.1482 14.1277 22.1482C14.2457 22.1482 14.3417 22.2494 14.3417 22.3742C14.3417 22.499 14.2457 22.6005 14.1277 22.6005ZM15.3911 16.0911C15.3791 16.0897 15.367 16.0886 15.3549 16.0877C15.0426 16.0684 14.7979 15.7919 14.7979 15.4587C14.7979 15.4085 14.8046 15.3598 14.8156 15.313C14.8177 15.3039 14.821 15.2954 14.8234 15.2863C14.8346 15.246 14.8486 15.2072 14.8668 15.1706C14.8689 15.1664 14.8711 15.1624 14.8732 15.1581C14.9622 14.99 15.122 14.8692 15.3032 14.8377C15.3153 14.8357 15.3276 14.8349 15.3397 14.8337C15.3726 14.8303 15.4059 14.8295 15.4397 14.8323C15.4512 14.8331 15.4627 14.834 15.474 14.8357C15.5185 14.8422 15.5635 14.8527 15.608 14.8714C15.8393 14.9647 15.9892 15.1953 15.9892 15.4582C15.9892 15.803 15.7281 16.084 15.3911 16.0903V16.0911ZM20.2249 14.7501H17.2083C17.1885 14.6939 17.1652 14.6395 17.1411 14.5856C17.137 14.5765 17.1341 14.5671 17.1298 14.5581C17.092 14.477 17.0483 14.3998 17.0011 14.3247C16.9885 14.3045 16.9748 14.2853 16.9614 14.2654C16.9215 14.2067 16.8792 14.1503 16.8336 14.0964C16.8202 14.0805 16.8078 14.0641 16.7942 14.0488C16.7357 13.9835 16.6735 13.922 16.6071 13.8653C16.606 13.8644 16.6052 13.8633 16.6044 13.8624L16.9523 12.1737C17.5903 12.064 18.12 11.6045 18.357 10.9852L20.0828 10.998C20.0849 11.0172 20.0889 11.0357 20.0916 11.0547C20.0954 11.0828 20.1005 11.1103 20.1053 11.1381C20.1176 11.2087 20.1332 11.2779 20.1522 11.3459C20.1594 11.3723 20.1659 11.3984 20.1742 11.4245C20.2023 11.5124 20.2345 11.5986 20.2731 11.6814C20.2806 11.6978 20.2903 11.7129 20.2983 11.729C20.331 11.7948 20.3669 11.8586 20.4061 11.9205C20.4246 11.9497 20.4441 11.9777 20.464 12.0058C20.4977 12.0537 20.5339 12.0997 20.5715 12.1445C20.5937 12.1711 20.6152 12.1981 20.6387 12.2233C20.6948 12.2834 20.7537 12.3407 20.8167 12.3932L20.2249 14.7501ZM21.8204 11.3819C21.5751 11.2901 21.4105 11.0419 21.4105 10.7643C21.4105 10.6869 21.4226 10.6143 21.4512 10.534C21.5078 10.3676 21.6298 10.2311 21.785 10.1597C21.8659 10.1234 21.9504 10.105 22.0362 10.105C22.3798 10.105 22.6594 10.4007 22.6594 10.7643C22.6594 11.2033 22.2471 11.5495 21.8204 11.3819Z" fill="#0B0F0E"/>
</svg>
