<svg width="24" height="25" viewBox="0 0 24 25" fill="" xmlns="http://www.w3.org/2000/svg">
<path d="M11.9997 8.01079C9.35172 8.01079 7.19972 10.1628 7.19972 12.8108C7.19972 15.4588 9.35172 17.6108 11.9997 17.6108C14.6477 17.6108 16.7997 15.4588 16.7997 12.8108C16.7997 10.1628 14.6477 8.01079 11.9997 8.01079ZM11.1997 10.4108C12.0837 10.4108 12.7997 11.1268 12.7997 12.0108C12.7997 12.8948 12.0837 13.6108 11.1997 13.6108C10.3157 13.6108 9.59972 12.8948 9.59972 12.0108C9.59972 11.1268 10.3157 10.4108 11.1997 10.4108ZM11.9997 16.0108C10.9117 16.0108 9.95172 15.4668 9.37572 14.6348C9.89172 14.9988 10.5197 15.2108 11.1997 15.2108C12.9637 15.2108 14.3997 13.7748 14.3997 12.0108C14.3997 11.3308 14.1877 10.7028 13.8237 10.1868C14.6557 10.7628 15.1997 11.7228 15.1997 12.8108C15.1997 14.5748 13.7637 16.0108 11.9997 16.0108Z" fill=""/>
<path d="M20.1317 9.08679C20.3437 9.16279 20.5637 9.21079 20.7997 9.21079C21.9037 9.21079 22.7997 8.31479 22.7997 7.21079C22.7997 6.10679 21.9037 5.21079 20.7997 5.21079C19.6957 5.21079 18.7997 6.10679 18.7997 7.21079C18.7997 7.46679 18.8517 7.71079 18.9397 7.93879L18.7917 8.08679C17.9357 7.49479 16.9957 6.94679 15.9957 6.51479V6.34679L16.4677 5.87479C16.6997 5.95879 16.9437 6.01079 17.1997 6.01079C18.3037 6.01079 19.1997 5.11479 19.1997 4.01079C19.1997 2.90679 18.3037 2.01079 17.1997 2.01079C16.0957 2.01079 15.1997 2.90679 15.1997 4.01079C15.1997 4.26679 15.2517 4.51079 15.3397 4.73879L14.6317 5.44679C14.4957 5.58279 14.4197 5.76279 14.4037 5.95079C13.8797 5.80679 13.3397 5.70679 12.7957 5.65479V4.64279C13.4997 4.33479 13.9957 3.63079 13.9957 2.81079C13.9957 1.70679 13.0997 0.810791 11.9957 0.810791C10.8917 0.810791 9.99572 1.70679 9.99572 2.81079C9.99572 3.63079 10.4917 4.33079 11.1957 4.64279V5.65479C10.6517 5.70679 10.1157 5.80679 9.58772 5.95079C9.57172 5.76279 9.49572 5.58279 9.35972 5.44679L8.65172 4.73879C8.74772 4.51079 8.79972 4.26679 8.79972 4.01079C8.79972 2.90679 7.90372 2.01079 6.79972 2.01079C5.69572 2.01079 4.79972 2.90679 4.79972 4.01079C4.79972 5.11479 5.69572 6.01079 6.79972 6.01079C7.05572 6.01079 7.29972 5.95879 7.52772 5.87079L7.99972 6.34279V6.51079C6.99972 6.94279 6.05972 7.49079 5.20372 8.08279L5.05572 7.93479C5.14772 7.71079 5.19972 7.46679 5.19972 7.21079C5.19972 6.10679 4.30372 5.21079 3.19972 5.21079C2.09572 5.21079 1.19972 6.10679 1.19972 7.21079C1.19972 8.31479 2.09572 9.21079 3.19972 9.21079C3.43572 9.21079 3.65572 9.16279 3.86772 9.08679C1.94372 10.6508 0.687719 12.1748 0.579719 12.3068C0.339719 12.5988 0.339719 13.0228 0.579719 13.3148C0.683719 13.4468 1.94372 14.9708 3.86772 16.5348C3.65572 16.4588 3.43572 16.4108 3.19972 16.4108C2.09572 16.4108 1.19972 17.3068 1.19972 18.4108C1.19972 19.5148 2.09572 20.4108 3.19972 20.4108C4.30372 20.4108 5.19972 19.5148 5.19972 18.4108C5.19972 18.1548 5.14772 17.9108 5.05972 17.6828L5.20772 17.5348C6.06372 18.1268 7.00372 18.6748 8.00372 19.1068V19.2748L7.53172 19.7468C7.29972 19.6628 7.05572 19.6108 6.79972 19.6108C5.69572 19.6108 4.79972 20.5068 4.79972 21.6108C4.79972 22.7148 5.69572 23.6108 6.79972 23.6108C7.90372 23.6108 8.79972 22.7148 8.79972 21.6108C8.79972 21.3548 8.74772 21.1108 8.65972 20.8828L9.36772 20.1748C9.50372 20.0388 9.57972 19.8588 9.59572 19.6708C10.1197 19.8148 10.6597 19.9148 11.2037 19.9668V20.9788C10.4997 21.2868 10.0037 21.9908 10.0037 22.8108C10.0037 23.9148 10.8997 24.8108 12.0037 24.8108C13.1077 24.8108 14.0037 23.9148 14.0037 22.8108C14.0037 21.9908 13.5077 21.2908 12.8037 20.9788V19.9668C13.3477 19.9148 13.8837 19.8148 14.4117 19.6708C14.4277 19.8588 14.5037 20.0388 14.6397 20.1748L15.3477 20.8828C15.2517 21.1108 15.1997 21.3548 15.1997 21.6108C15.1997 22.7148 16.0957 23.6108 17.1997 23.6108C18.3037 23.6108 19.1997 22.7148 19.1997 21.6108C19.1997 20.5068 18.3037 19.6108 17.1997 19.6108C16.9437 19.6108 16.6997 19.6628 16.4717 19.7508L15.9997 19.2788V19.1108C16.9997 18.6788 17.9397 18.1308 18.7957 17.5388L18.9437 17.6868C18.8517 17.9108 18.7997 18.1548 18.7997 18.4108C18.7997 19.5148 19.6957 20.4108 20.7997 20.4108C21.9037 20.4108 22.7997 19.5148 22.7997 18.4108C22.7997 17.3068 21.9037 16.4108 20.7997 16.4108C20.5637 16.4108 20.3437 16.4588 20.1317 16.5348C22.0557 14.9708 23.3117 13.4468 23.4197 13.3148C23.6597 13.0228 23.6597 12.5988 23.4197 12.3068C23.3157 12.1748 22.0597 10.6508 20.1317 9.08679ZM17.1997 3.61079C17.4197 3.61079 17.5997 3.79079 17.5997 4.01079C17.5997 4.23079 17.4197 4.41079 17.1997 4.41079C16.9797 4.41079 16.7997 4.23079 16.7997 4.01079C16.7997 3.79079 16.9797 3.61079 17.1997 3.61079ZM6.79972 4.41079C6.57972 4.41079 6.39972 4.23079 6.39972 4.01079C6.39972 3.79079 6.57972 3.61079 6.79972 3.61079C7.01972 3.61079 7.19972 3.79079 7.19972 4.01079C7.19972 4.23079 7.01972 4.41079 6.79972 4.41079ZM6.79972 22.0108C6.57972 22.0108 6.39972 21.8308 6.39972 21.6108C6.39972 21.3908 6.57972 21.2108 6.79972 21.2108C7.01972 21.2108 7.19972 21.3908 7.19972 21.6108C7.19972 21.8308 7.01972 22.0108 6.79972 22.0108ZM17.1997 21.2108C17.4197 21.2108 17.5997 21.3908 17.5997 21.6108C17.5997 21.8308 17.4197 22.0108 17.1997 22.0108C16.9797 22.0108 16.7997 21.8308 16.7997 21.6108C16.7997 21.3908 16.9797 21.2108 17.1997 21.2108ZM20.7997 6.81079C21.0197 6.81079 21.1997 6.99079 21.1997 7.21079C21.1997 7.43079 21.0197 7.61079 20.7997 7.61079C20.5797 7.61079 20.3997 7.43079 20.3997 7.21079C20.3997 6.99079 20.5797 6.81079 20.7997 6.81079ZM11.9997 2.41079C12.2197 2.41079 12.3997 2.59079 12.3997 2.81079C12.3997 3.03079 12.2197 3.21079 11.9997 3.21079C11.7797 3.21079 11.5997 3.03079 11.5997 2.81079C11.5997 2.59079 11.7797 2.41079 11.9997 2.41079ZM3.19972 7.61079C2.97972 7.61079 2.79972 7.43079 2.79972 7.21079C2.79972 6.99079 2.97972 6.81079 3.19972 6.81079C3.41972 6.81079 3.59972 6.99079 3.59972 7.21079C3.59972 7.43079 3.41972 7.61079 3.19972 7.61079ZM3.19972 18.8108C2.97972 18.8108 2.79972 18.6308 2.79972 18.4108C2.79972 18.1908 2.97972 18.0108 3.19972 18.0108C3.41972 18.0108 3.59972 18.1908 3.59972 18.4108C3.59972 18.6308 3.41972 18.8108 3.19972 18.8108ZM11.9997 23.2108C11.7797 23.2108 11.5997 23.0308 11.5997 22.8108C11.5997 22.5908 11.7797 22.4108 11.9997 22.4108C12.2197 22.4108 12.3997 22.5908 12.3997 22.8108C12.3997 23.0308 12.2197 23.2108 11.9997 23.2108ZM20.7997 18.0108C21.0197 18.0108 21.1997 18.1908 21.1997 18.4108C21.1997 18.6308 21.0197 18.8108 20.7997 18.8108C20.5797 18.8108 20.3997 18.6308 20.3997 18.4108C20.3997 18.1908 20.5797 18.0108 20.7997 18.0108ZM11.9997 18.4108C7.73972 18.4108 3.59572 14.2748 2.26372 12.8108C3.59572 11.3468 7.73972 7.21079 11.9997 7.21079C16.2597 7.21079 20.4037 11.3468 21.7357 12.8108C20.4037 14.2748 16.2597 18.4108 11.9997 18.4108Z" fill=""/>
</svg>
