<svg width="25" height="22" viewBox="0 0 25 22" fill="" xmlns="http://www.w3.org/2000/svg">
<path d="M20.0505 4.73435H17.114C16.4582 4.73435 15.9241 5.26788 15.9241 5.92398V8.86044C15.9241 9.51627 16.4579 10.0503 17.114 10.0503H20.0505C20.7063 10.0503 21.2401 9.51655 21.2401 8.86044V5.92398C21.2401 5.26816 20.7066 4.73435 20.0505 4.73435ZM19.8471 8.65706H17.3174V6.12736H19.8471V8.65706Z" fill=""/>
<path d="M24.5861 6.40178V5.00878H23.7604V3.91499C23.7604 2.98892 23.0067 2.23558 22.0807 2.23558H21.2006V1.35492H19.8076V2.23558H19.2791V1.35492H17.886V2.23558H17.5707V1.35492H16.1777V2.23558H16.0086C14.177 0.856223 11.8644 0.34694 9.61799 0.842293L9.45808 0.877954C6.00453 1.64188 3.45505 4.64019 3.25752 8.1684L3.17088 9.67591L0.707763 13.3058C0.587965 13.4824 0.555647 13.7036 0.620004 13.9067C0.684361 14.1098 0.83787 14.2726 1.03707 14.3483L2.54904 14.9217V17.6422C2.54904 18.1122 2.73542 18.551 3.07365 18.8781C3.41187 19.2055 3.85401 19.3724 4.32791 19.3609C4.35995 19.3598 4.39199 19.3562 4.42375 19.3509L7.2549 18.8581L7.48558 20.7305C7.52904 21.0835 7.82937 21.3418 8.17623 21.3418C8.20465 21.3418 8.23334 21.3401 8.26232 21.3365C8.64428 21.2894 8.91564 20.9417 8.86856 20.56L8.54816 17.961C8.52476 17.7715 8.42502 17.6002 8.27151 17.4865C8.11828 17.3728 7.92521 17.328 7.73743 17.36L4.246 17.9679C4.14487 17.961 4.07605 17.9089 4.04234 17.8763C4.00501 17.8403 3.94288 17.7623 3.94288 17.6422V14.4411C3.94288 14.1516 3.76374 13.8925 3.4935 13.7897L2.35653 13.3587L4.43266 10.2997C4.50343 10.1955 4.54438 10.074 4.55191 9.94838L4.64969 8.2478C4.8124 5.3392 6.91389 2.868 9.76203 2.23836L9.92167 2.2027C11.3108 1.89596 12.7325 2.05895 13.9931 2.64206C13.6343 2.95019 13.4059 3.40626 13.4059 3.91527V4.77002H12.4887V6.16302H13.4059V6.69153H12.4887V8.08454H13.4059V8.39991H12.4887V9.79292H13.4059V10.9118C13.4059 11.8379 14.1592 12.5912 15.0853 12.5912H16.444C16.3919 12.6558 16.3404 12.7207 16.2858 12.7831C16.2314 12.8453 16.1768 12.9074 16.1172 12.9698C15.2644 13.8686 14.795 15.0468 14.795 16.288L14.795 20.0881C14.795 20.4728 15.1067 20.7846 15.4915 20.7846C15.8762 20.7846 16.188 20.4728 16.188 20.0881V16.288C16.188 15.4051 16.5217 14.5673 17.1249 13.9313C17.1962 13.8569 17.2642 13.78 17.3327 13.7023C17.6359 13.3568 17.9064 12.9843 18.141 12.5912H18.1474V13.4468H19.5404V12.5912H19.9555V13.4468H21.3485V12.5912H22.0821C23.0081 12.5912 23.7618 11.8379 23.7618 10.9118V10.032H24.5875V8.63895L23.7618 8.63895V8.11017L24.5875 8.11017V6.71716L23.7618 6.71716V6.40206L24.5875 6.40206L24.5861 6.40178ZM22.3674 10.9118C22.3674 11.0698 22.2386 11.1982 22.0807 11.1982L15.0842 11.1982C14.9262 11.1982 14.7978 11.0698 14.7978 10.9118V3.91499C14.7978 3.75702 14.9262 3.62859 15.0842 3.62859L22.0807 3.62859C22.2386 3.62859 22.3674 3.75702 22.3674 3.91499V10.9118Z" fill=""/>
</svg>
