<svg width="33" height="36" viewBox="0 0 33 36" fill="" xmlns="http://www.w3.org/2000/svg">
<path d="M7.21096 14.4948C8.56138 14.0507 9.54017 12.7795 9.54017 11.282C9.54017 9.41671 8.02248 7.89902 6.1576 7.89902C4.29272 7.89902 2.7746 9.41671 2.7746 11.282C2.7746 12.7795 3.75339 14.0507 5.10423 14.4948V19.7726L10.5084 23.1269V35.2482H12.6152V21.9551L7.21096 18.6008V14.4948ZM6.1576 12.5583C5.45395 12.5583 4.88134 11.9857 4.88134 11.282C4.88134 10.5784 5.45395 10.0058 6.1576 10.0058C6.86124 10.0058 7.43343 10.5784 7.43343 11.282C7.43343 11.9857 6.86124 12.5583 6.1576 12.5583Z" fill=""/>
<path d="M4.49581 28.2075C5.84622 27.7634 6.82501 26.4922 6.82501 24.9947C6.82501 23.1294 5.30732 21.6122 3.44244 21.6122C1.57756 21.6122 0.0594482 23.1294 0.0594482 24.9947C0.0594482 26.4922 1.03824 27.7634 2.38907 28.2075L2.38907 31.5142L5.51041 33.9012V35.2482H7.61714V32.8604L4.49581 30.4735V28.2075ZM3.44244 26.271C2.73879 26.271 2.16618 25.6984 2.16618 24.9947C2.16618 24.2911 2.73879 23.7189 3.44244 23.7189C4.14609 23.7189 4.71828 24.2911 4.71828 24.9947C4.71828 25.6984 4.14609 26.271 3.44244 26.271Z" fill=""/>
<path d="M15.9025 0.734863C14.0372 0.734863 12.5195 2.25255 12.5195 4.11785C12.5195 5.61532 13.4983 6.88652 14.8491 7.33062L14.8491 35.2486H16.9559L16.9559 7.3302C18.3063 6.8861 19.2851 5.6149 19.2851 4.11785C19.2851 2.25255 17.7674 0.734863 15.9025 0.734863ZM15.9025 5.39369C15.1988 5.39369 14.6262 4.8215 14.6262 4.11785C14.6262 3.41421 15.1988 2.8416 15.9025 2.8416C16.6061 2.8416 17.1783 3.41421 17.1783 4.11785C17.1783 4.8215 16.6061 5.39369 15.9025 5.39369Z" fill=""/>
<path d="M27.0151 14.5116C28.3655 14.0675 29.3443 12.7963 29.3443 11.2989C29.3443 9.43356 27.8266 7.91587 25.9617 7.91587C24.0968 7.91587 22.5787 9.43356 22.5787 11.2989C22.5787 12.7963 23.5575 14.0675 24.9084 14.5116V18.6177L19.5037 21.972L19.5037 35.2651H21.6105L21.6105 23.1438L27.0151 19.7894V14.5116ZM25.9617 12.5751C25.2581 12.5751 24.6855 12.0025 24.6855 11.2989C24.6855 10.5952 25.2581 10.0226 25.9617 10.0226C26.6654 10.0226 27.2376 10.5952 27.2376 11.2989C27.2376 12.0025 26.6654 12.5751 25.9617 12.5751Z" fill=""/>
<path d="M28.6769 21.629C26.8116 21.629 25.2939 23.1467 25.2939 25.0116C25.2939 26.509 26.2727 27.7803 27.6235 28.2243V30.4899L24.5018 32.8773V35.2651H26.6085V33.9184L29.7302 31.5311V28.2243C31.0807 27.7803 32.0594 26.509 32.0594 25.0116C32.0594 23.1463 30.5418 21.629 28.6769 21.629ZM28.6769 26.2878C27.9732 26.2878 27.4006 25.7152 27.4006 25.0116C27.4006 24.3079 27.9732 23.7357 28.6769 23.7357C29.3805 23.7357 29.9527 24.3079 29.9527 25.0116C29.9527 25.7152 29.3805 26.2878 28.6769 26.2878Z" fill=""/>
</svg>
